<?xml version="1.0" encoding="utf-8"?>
<!-- Generator: Adobe Illustrator 27.3.1, SVG Export Plug-In . SVG Version: 6.00 Build 0)  -->
<svg version="1.1" xmlns="http://www.w3.org/2000/svg" xmlns:xlink="http://www.w3.org/1999/xlink" x="0px" y="0px"
	 viewBox="0 0 24 24" style="enable-background:new 0 0 24 24;" xml:space="preserve">
<style type="text/css">
	.st0{fill-rule:evenodd;clip-rule:evenodd;fill:#142637;}
	.st1{fill-rule:evenodd;clip-rule:evenodd;fill:none;stroke:#142637;stroke-width:2;stroke-miterlimit:10;}
	.st2{fill-rule:evenodd;clip-rule:evenodd;fill:#FFFFFF;stroke:#142637;stroke-width:0.5;stroke-miterlimit:10;}
</style>
<g id="Layer_1">
	<g id="Layer_3">
	</g>
	<g>
		<g>
			<path class="st0" d="M-57.73,21.38c-0.4-5.51-3.78-8.96-3.43-14.41c0.13-2.02,2.96-18.41,1.63-18.74c-1.35-0.34-4,4.13-5.44,4.08
				c-2.38-0.09-0.51-7.95-1.87-9.59c-1.44-1.73-5.38,0.09-7.43-1.11c-1.15-0.67-2.89-4.11-4.03-4.45c-1.09-0.33-3.07,2.07-4.05,1.47
				c-1.94-1.18-3.51-4.33-5.75-5.01c-1.78-0.54-4.38,2.93-5.48,3.99c-2.58,2.49-3.24-3.6-6.49-2.38c-1.83,0.68-2.42,6.18-3.59,7.73
				c-1.8,2.37-5.32,4.58-8.34,4.33c-2-0.17-5.64-1.52-7.52-0.52c2.27,0.72,6.13,0.93,7.68,2.99c1.16,1.54,3.33,3.48,5.2,4.15
				c2.08,0.74,4.16-2.5,4.76-4.25c0.72-2.13,2.4,0.52,4.3,0.09c2.46-0.55,0.51-3.11-0.71-4.23c-3.67-3.37,0.41-1.88,2.3-1.91
				c3.94-0.06,1.47,2.07,3.46,4.13c0.38,1.5,3.67,1.91,4.9,1.91c-0.38-0.66-4.1-2.5-2.82-3.5c0.9-0.7,2.7,0.27,3.35,0.92
				c0.91,0.91,5.17,5.33,5.86,1.35c4.33-1.45,1.81,3.67,5.46,0.73c3.19-2.57,2.75,2.06,3.77,3.97c1.88,3.54,8.72,2.46,9.83,7.45
				c0.12,0.52-1.85,2.18-2.36,1.92c-1.21-0.63-1.2-1.96-2.29-2.37c-3.96-1.48-3.18-0.23-6.96,0.81c-2.18,0.6-3.18-2.56-3.62,1.27
				c-0.19,1.63-0.01,2.5,0.54,3.93c1.15,3,3.58,0.59,5.89-0.31c1.4-0.55,5.12,3.54,4.02,5.59c-1.35,1.52-5.04,3.39-5.35,5.27
				c-0.63,3.78,1.28,6.7-1.78,9.66c-1.45,1.41-7.02,2.89-5.7-0.75c0.9-2.48,4.23-2.49,6.08-3.87c1.02-0.76,0.68-4.88-0.6-4.88
				c0.63,1.9,1.4,3.96-1.49,3.9c-2.26-0.04-3.19,2.22-4.91,2.22c0-2.07-2.47-1.02-3.49-0.55c-1.23,0.57-0.27,2.45-0.09,3.55
				c0.76,4.53-3.51,2.76-5.76,1.23c-0.52-0.35-7.93-5.06-6.8-1.28c0.73,2.45,3.49,4.02,3.64,7.06c0.22,4.23,0.97,2.94,4.42,4.46
				c2.81,1.24,6.71-0.68,9.66,0.23c1.61,0.49,2.16,3.55-0.01,3.56c-1.44,0-2.76-0.56-4.15-0.84c0-0.19-5.93,1.46-6.53,1.77
				c1.06,3.18,12.56-4.7,11.34,2.16c0.24-1.38,7.71,0.15,7.71-0.94c0.97,0,3.22,0.07,3.83-0.86c0.95-1.45-1.85-0.24-2.05-0.09
				c-3.64,2.73-0.64-6.42-0.31-7.51c0.93-3.12,2.07,2.98,2.2,3.01c0.76-2.11,2.45-4.21,2.45-0.14c2,0-1.69-11.11-0.95-12.52
				c4.93,0,5.57,6.13,5.04,9.53C-57.59,33.86-57.53,24.16-57.73,21.38z M-60.02,16.48c1.74,0-0.07,2.35-0.07,0.75L-60.02,16.48z
				 M-59.74,26.27c-0.38-0.76-3.81-3.41-3.81-3.81c-1.9,0-3.56-1.84-3.25-3.5c0.1-0.52,1.07-1.52,1.07-1.68
				c0.41,0.02,3.27,1.73,3.27,2.04c0.47,0.16,1.71,1.77,1.63,1.77C-60.83,21.85-57.12,26.27-59.74,26.27z M-112.34-5.64
				c-0.81-1.1-4.2-5.22-5.51-5.51c-1.67,1.97,0.7,2.83,1.03,4.98c0.09,0.6,1.73,3.93,2.17,4.04
				C-112.47-1.52-111.09-3.94-112.34-5.64z M-117.96,7.6c2.36,0.74,6.7,0.36,9.13-0.19c2.6-0.58,0.88-4.4,0.09-5.77
				c-1.71-0.14-2.19,1.99-3.38,2.81c-5.79,3.97-0.57-2.45-0.57-4.71c-1.27,0.28-2.77,1.81-3.48,0.18c-0.53-1.22-1.02-3-2.03-3.93
				l0.48,1.57c0.31,3.13,0.11,3.56-0.8,6.28C-118.93,5.05-119.72,7.04-117.96,7.6z M-112.68-0.4C-112.45-0.17-112.19-0.4-112.68-0.4
				L-112.68-0.4z M-100.57,4.27c1.68-0.39,2.24,0.63,4.07-0.03c0.9-0.32,2.1-0.88,3.09-0.63c1.28,0.32,0.93,3.32,1.41,4.3
				c1.03,0,1.43-3.78,1.63-4.63c0.74-0.25,1.37-0.66,1.91-1.22c-2.66-1.41-9.27-2.41-11.97-0.96C-101.97,1.92-103.77,5-100.57,4.27z
				 M-115.08,25.17c0.55-0.51,10.03-13.23,6.07-14c-1.83,1.63-3.08,3.79-4.93,5.42c-1.22,1.07-2.17,0.47-3.35,1.62
				c-0.97,0.95-3.55,3.43-3.9,4.73c-0.34,1.27,2.24,0.97,2.24,0.07c5.03-3.77,2.44,3.13,1.91,3.13c0,1.19-3.76,13.06,0.68,13.06
				c-0.85-2.12-0.74-5.89-0.1-8.03C-116.04,29.77-116.27,26.28-115.08,25.17z M-108.19,39.12c0.9,0.34,2.41-10.41,2.89-11.72
				c0.45-1.21,1.69-1.68,1-2.67c-0.36-0.52,0.28-1.51,0.52-1.9c1.78-2.83,1.76,0.91,4.02,0.05c-0.16-1.82-2.21-2.74-3.81-2.72
				c0,2-4.79,1.59-4.95,3.24c-0.27,2.63-1.24,3.94-2.73,5.83c-2.01,2.58,0.97,3.23,1.47,5.03
				C-109.44,35.46-109.66,38.57-108.19,39.12z M-101.52,34.3c0,0.9-0.52,3.56-0.77,4.68c-0.51,2.31,2.81,2.33,2.59,4.34
				c-0.29,2.63-7.53,1.82-9.3,2.42c0.16,1.61,9.6,0.18,11.15-0.28c1.09-0.32-0.59-2.39-0.5-3.37c0.13-1.42,0.93-1.39,1.05-2.62
				C-97.11,37.49-99.39,34.27-101.52,34.3z M-90.5,47.91c0.64,1.08,9.74-0.12,9.93-0.82c-1.61-0.74-3.93-1.5-5.72-1.5
				C-86.39,47.6-89.31,47.12-90.5,47.91z"/>
		</g>
	</g>
	<circle class="st1" cx="-90" cy="12" r="40"/>
	<circle class="st2" cx="12.03" cy="12.05" r="11.72"/>
	<g>
		<g>
			<path class="st0" d="M21.32,14.8c-0.12-1.61-1.11-2.63-1.01-4.22c0.04-0.59,0.87-5.4,0.48-5.49c-0.4-0.1-1.17,1.21-1.6,1.2
				c-0.7-0.03-0.15-2.33-0.55-2.81c-0.42-0.51-1.58,0.03-2.18-0.32c-0.34-0.2-0.85-1.2-1.18-1.3c-0.32-0.1-0.9,0.61-1.19,0.43
				c-0.57-0.34-1.03-1.27-1.69-1.47c-0.52-0.16-1.28,0.86-1.6,1.17c-0.75,0.73-0.95-1.05-1.9-0.7c-0.54,0.2-0.71,1.81-1.05,2.26
				C7.33,4.24,6.3,4.88,5.42,4.81c-0.59-0.05-1.65-0.44-2.2-0.15c0.67,0.21,1.8,0.27,2.25,0.88C5.8,5.99,6.44,6.55,6.99,6.75
				C7.6,6.97,8.21,6.02,8.38,5.5c0.21-0.62,0.7,0.15,1.26,0.03c0.72-0.16,0.15-0.91-0.21-1.24C8.36,3.3,9.56,3.74,10.11,3.73
				c1.15-0.02,0.43,0.61,1.02,1.21c0.11,0.44,1.07,0.56,1.44,0.56c-0.11-0.19-1.2-0.73-0.83-1.02c0.26-0.21,0.79,0.08,0.98,0.27
				c0.27,0.27,1.52,1.56,1.72,0.4c1.27-0.42,0.53,1.08,1.6,0.21c0.94-0.75,0.81,0.6,1.11,1.16c0.55,1.04,2.55,0.72,2.88,2.18
				c0.03,0.15-0.54,0.64-0.69,0.56c-0.35-0.18-0.35-0.57-0.67-0.69c-1.16-0.43-0.93-0.07-2.04,0.24c-0.64,0.18-0.93-0.75-1.06,0.37
				c-0.05,0.48,0,0.73,0.16,1.15c0.34,0.88,1.05,0.17,1.73-0.09c0.41-0.16,1.5,1.04,1.18,1.64c-0.4,0.45-1.48,0.99-1.57,1.54
				c-0.18,1.11,0.37,1.96-0.52,2.83c-0.43,0.41-2.06,0.85-1.67-0.22c0.26-0.73,1.24-0.73,1.78-1.13c0.3-0.22,0.2-1.43-0.18-1.43
				c0.19,0.56,0.41,1.16-0.44,1.14c-0.66-0.01-0.93,0.65-1.44,0.65c0-0.61-0.72-0.3-1.02-0.16c-0.36,0.17-0.08,0.72-0.03,1.04
				c0.22,1.33-1.03,0.81-1.69,0.36c-0.15-0.1-2.32-1.48-1.99-0.37c0.21,0.72,1.02,1.18,1.07,2.07c0.06,1.24,0.28,0.86,1.3,1.31
				c0.82,0.36,1.97-0.2,2.83,0.07c0.47,0.14,0.63,1.04,0,1.04c-0.42,0-0.81-0.16-1.22-0.25c0-0.06-1.74,0.43-1.91,0.52
				c0.31,0.93,3.68-1.38,3.32,0.63c0.07-0.41,2.26,0.04,2.26-0.28c0.28,0,0.94,0.02,1.12-0.25c0.28-0.43-0.54-0.07-0.6-0.03
				c-1.07,0.8-0.19-1.88-0.09-2.2c0.27-0.91,0.61,0.87,0.65,0.88c0.22-0.62,0.72-1.23,0.72-0.04c0.59,0-0.5-3.26-0.28-3.67
				c1.45,0,1.63,1.8,1.48,2.79C21.37,18.45,21.38,15.61,21.32,14.8z M20.66,13.36c0.51,0-0.02,0.69-0.02,0.22L20.66,13.36z
				 M20.74,16.23c-0.11-0.22-1.12-1-1.12-1.12c-0.56,0-1.04-0.54-0.95-1.02c0.03-0.15,0.31-0.44,0.31-0.49
				c0.12,0.01,0.96,0.51,0.96,0.6c0.14,0.05,0.5,0.52,0.48,0.52C20.42,14.94,21.5,16.23,20.74,16.23z M5.32,6.88
				C5.09,6.56,4.09,5.35,3.71,5.26c-0.49,0.58,0.21,0.83,0.3,1.46C4.04,6.9,4.52,7.87,4.64,7.91C5.29,8.09,5.69,7.38,5.32,6.88z
				 M3.67,10.76c0.69,0.22,1.96,0.11,2.68-0.06c0.76-0.17,0.26-1.29,0.03-1.69C5.88,8.97,5.74,9.6,5.39,9.84
				C3.69,11,5.22,9.12,5.22,8.45C4.85,8.54,4.41,8.99,4.2,8.51c-0.16-0.36-0.3-0.88-0.6-1.15l0.14,0.46
				c0.09,0.92,0.03,1.04-0.23,1.84C3.39,10.01,3.16,10.6,3.67,10.76z M5.22,8.41C5.29,8.48,5.37,8.41,5.22,8.41L5.22,8.41z
				 M8.77,9.78c0.49-0.11,0.66,0.18,1.19-0.01c0.26-0.09,0.62-0.26,0.91-0.18c0.37,0.09,0.27,0.97,0.41,1.26
				c0.3,0,0.42-1.11,0.48-1.36c0.22-0.07,0.4-0.19,0.56-0.36c-0.78-0.41-2.72-0.7-3.51-0.28C8.36,9.09,7.84,10,8.77,9.78z
				 M4.52,15.91c0.16-0.15,2.94-3.88,1.78-4.1c-0.54,0.48-0.9,1.11-1.45,1.59c-0.36,0.31-0.64,0.14-0.98,0.48
				c-0.28,0.28-1.04,1.01-1.14,1.39c-0.1,0.37,0.66,0.29,0.66,0.02c1.47-1.11,0.72,0.92,0.56,0.92c0,0.35-1.1,3.83,0.2,3.83
				C3.9,19.4,3.93,18.3,4.12,17.67C4.24,17.26,4.17,16.23,4.52,15.91z M6.54,20c0.26,0.1,0.71-3.05,0.85-3.44
				c0.13-0.36,0.49-0.49,0.29-0.78c-0.11-0.15,0.08-0.44,0.15-0.56c0.52-0.83,0.52,0.27,1.18,0.02c-0.05-0.53-0.65-0.8-1.12-0.8
				c0,0.59-1.4,0.47-1.45,0.95c-0.08,0.77-0.36,1.15-0.8,1.71c-0.59,0.76,0.29,0.95,0.43,1.47C6.17,18.92,6.11,19.83,6.54,20z
				 M8.49,18.58c0,0.26-0.15,1.04-0.23,1.37c-0.15,0.68,0.82,0.68,0.76,1.27C8.94,22,6.82,21.76,6.3,21.93
				c0.05,0.47,2.81,0.05,3.27-0.08c0.32-0.1-0.17-0.7-0.15-0.99c0.04-0.42,0.27-0.41,0.31-0.77C9.78,19.52,9.12,18.58,8.49,18.58z
				 M11.72,22.57c0.19,0.32,2.85-0.03,2.91-0.24c-0.47-0.22-1.15-0.44-1.68-0.44C12.93,22.48,12.07,22.34,11.72,22.57z"/>
		</g>
	</g>
</g>
<g id="Layer_2">
</g>
</svg>
